<svg width="31" height="32" viewBox="0 0 31 32" fill="none" xmlns="http://www.w3.org/2000/svg">
	<g clip-path="url(#clip0)">
	<path d="M18.5 17H13.5C13.224 17 13 17.224 13 17.5C13 17.776 13.224 18 13.5 18H18.5C18.776 18 19 17.776 19 17.5C19 17.224 18.776 17 18.5 17ZM19.5 14H12.5C12.224 14 12 14.224 12 14.5C12 14.776 12.224 15 12.5 15H19.5C19.776 15 20 14.776 20 14.5C20 14.224 19.776 14 19.5 14ZM16 8.5C11.582 8.5 8 11.634 8 15.5C8 17.7095 9.1725 19.6765 11 20.9595V24.5L14.5045 22.3735C14.9895 22.4535 15.4885 22.5 16 22.5C20.4185 22.5 24 19.366 24 15.5C24 11.634 20.4185 8.5 16 8.5ZM16 21.5C15.416 21.5 14.852 21.432 14.31 21.3165L11.956 22.7315L11.9875 20.4125C10.183 19.327 9 17.533 9 15.5C9 12.1865 12.134 9.5 16 9.5C19.866 9.5 23 12.1865 23 15.5C23 18.8135 19.866 21.5 16 21.5Z" fill="black"/>
	</g>
	<defs>
	<clipPath id="clip0">
	<rect width="16" height="16" fill="white" transform="translate(8 8.5)"/>
	</clipPath>
	</defs>
	</svg>
