<svg width="31" height="31" viewBox="0 0 31 31" fill="none" xmlns="http://www.w3.org/2000/svg">
	<path d="M10.5 9H5.5C5.224 9 5 9.224 5 9.5C5 9.776 5.224 10 5.5 10H10.5C10.776 10 11 9.776 11 9.5C11 9.224 10.776 9 10.5 9ZM11.5 6H4.5C4.224 6 4 6.224 4 6.5C4 6.776 4.224 7 4.5 7H11.5C11.776 7 12 6.776 12 6.5C12 6.224 11.776 6 11.5 6ZM8 0.5C3.58201 0.5 0 3.63399 0 7.5C0 9.70952 1.1725 11.6765 3 12.9595V16.5L6.5045 14.3735C6.98952 14.4535 7.4885 14.5 8 14.5C12.4185 14.5 16 11.366 16 7.5C16 3.63399 12.4185 0.5 8 0.5ZM8 13.5C7.416 13.5 6.852 13.432 6.30999 13.3165L3.95597 14.7315L3.98748 12.4125C2.18301 11.327 1 9.53302 1 7.5C1 4.18651 4.13399 1.5 8 1.5C11.866 1.5 15 4.18651 15 7.5C15 10.8135 11.866 13.5 8 13.5Z" fill="black"/>
	</svg>
