<svg width="31" height="31" viewBox="0 0 31 31" fill="none" xmlns="http://www.w3.org/2000/svg">
	<path d="M21.7498 17.989C21.53 17.989 21.3518 18.1671 21.3518 18.387V21.9209C21.3511 22.5801 20.817 23.1143 20.1578 23.1149H8.99005C8.33085 23.1143 7.7968 22.5801 7.79602 21.9209V11.5491C7.7968 10.8901 8.33085 10.3559 8.99005 10.3551H12.5239C12.7438 10.3551 12.922 10.1769 12.922 9.95708C12.922 9.7374 12.7438 9.55907 12.5239 9.55907H8.99005C7.89148 9.56032 7.00124 10.4506 7 11.5491V21.921C7.00124 23.0196 7.89148 23.9098 8.99005 23.9111H20.1578C21.2564 23.9098 22.1466 23.0196 22.1479 21.921V18.387C22.1479 18.1671 21.9697 17.989 21.7498 17.989Z" fill="black" />
	<path fill-rule="evenodd" clip-rule="evenodd" d="M19.4568 8.53498C20.1563 7.83551 21.2903 7.83551 21.9898 8.53498L22.4568 9.00202C23.1552 9.70196 23.1552 10.835 22.4568 11.535L15.3563 18.6359C15.3076 18.6845 15.2473 18.7197 15.181 18.738L11.8099 19.672C11.6717 19.7102 11.5237 19.6712 11.4222 19.5698C11.3208 19.4683 11.2818 19.3203 11.3202 19.1821L12.254 15.8109C12.2723 15.7447 12.3074 15.6844 12.3561 15.6357L19.4568 8.53498ZM19.0347 10.0829L13.2233 15.8944L15.0974 17.7687L20.909 11.9571L19.0347 10.0829ZM12.849 16.6457L14.3463 18.1432L12.2751 18.717L12.849 16.6457ZM21.4719 11.3943L21.894 10.9722C22.2819 10.5833 22.2819 9.95382 21.894 9.56483L21.4268 9.09779C21.0383 8.70926 20.4083 8.70926 20.0198 9.09779L19.5976 9.5199L21.4719 11.3943Z" fill="black" />
</svg>
