<svg width="35" height="33" viewBox="0 0 35 33" fill="none" xmlns="http://www.w3.org/2000/svg">
	<path d="M1 4C1 2.34315 2.34315 1 4 1H31C32.6569 1 34 2.34315 34 4V29C34 30.6569 32.6569 32 31 32H4C2.34314 32 1 30.6569 1 29V4Z" fill="white" />
	<path d="M1 1.97895C1 1.43829 1.31888 1 1.71223 1H33.2878C33.6811 1 34 1.43829 34 1.97895V31.0211C34 31.5617 33.6811 32 33.2878 32H1.71223C1.31888 32 1 31.5617 1 31.0211V1.97895Z" fill="white" />
	<path d="M1 4C1 2.34315 2.34315 1 4 1H31C32.6569 1 34 2.34315 34 4V29C34 30.6569 32.6569 32 31 32H4C2.34314 32 1 30.6569 1 29V4Z" stroke="#4294D0" stroke-width="1.5" />
	<path d="M1 1.97895C1 1.43829 1.31888 1 1.71223 1H33.2878C33.6811 1 34 1.43829 34 1.97895V31.0211C34 31.5617 33.6811 32 33.2878 32H1.71223C1.31888 32 1 31.5617 1 31.0211V1.97895Z" stroke="#4294D0" stroke-width="1.5" />
	<path d="M22.293 15.0801V17.5312H12.5469V15.0801H22.293ZM18.7578 11.2227V21.5742H16.0918V11.2227H18.7578Z" fill="#4294D0" />
</svg>
