<?xml version="1.0" encoding="UTF-8"?>
<svg xmlns="http://www.w3.org/2000/svg" xmlns:xlink="http://www.w3.org/1999/xlink" width="40px" height="40px" viewBox="0 0 40 40" version="1.1">
<g id="surface1">
<path style=" stroke:none;fill-rule:nonzero;fill:rgb(100%,100%,100%);fill-opacity:1;" d="M 1.144531 4.847656 C 1.144531 2.839844 2.679688 1.210938 4.570312 1.210938 L 35.429688 1.210938 C 37.320312 1.210938 38.855469 2.839844 38.855469 4.847656 L 38.855469 35.152344 C 38.855469 37.160156 37.320312 38.789062 35.429688 38.789062 L 4.570312 38.789062 C 2.679688 38.789062 1.144531 37.160156 1.144531 35.152344 Z M 1.144531 4.847656 "/>
<path style=" stroke:none;fill-rule:nonzero;fill:rgb(100%,100%,100%);fill-opacity:1;" d="M 1.144531 2.398438 C 1.144531 1.742188 1.507812 1.210938 1.957031 1.210938 L 38.042969 1.210938 C 38.492188 1.210938 38.855469 1.742188 38.855469 2.398438 L 38.855469 37.601562 C 38.855469 38.257812 38.492188 38.789062 38.042969 38.789062 L 1.957031 38.789062 C 1.507812 38.789062 1.144531 38.257812 1.144531 37.601562 Z M 1.144531 2.398438 "/>
<path style="fill:none;stroke-width:1.5;stroke-linecap:butt;stroke-linejoin:miter;stroke:rgb(25.882353%,58.039216%,81.568627%);stroke-opacity:1;stroke-miterlimit:4;" d="M 1.001465 3.999316 C 1.001465 2.342871 2.344727 0.999023 3.999023 0.999023 L 31.000977 0.999023 C 32.655273 0.999023 33.998535 2.342871 33.998535 3.999316 L 33.998535 29.000684 C 33.998535 30.657129 32.655273 32.000977 31.000977 32.000977 L 3.999023 32.000977 C 2.344727 32.000977 1.001465 30.657129 1.001465 29.000684 Z M 1.001465 3.999316 " transform="matrix(1.142857,0,0,1.212121,0,0)"/>
<path style="fill:none;stroke-width:1.5;stroke-linecap:butt;stroke-linejoin:miter;stroke:rgb(25.882353%,58.039216%,81.568627%);stroke-opacity:1;stroke-miterlimit:4;" d="M 1.001465 1.978711 C 1.001465 1.437305 1.319336 0.999023 1.712402 0.999023 L 33.287598 0.999023 C 33.680664 0.999023 33.998535 1.437305 33.998535 1.978711 L 33.998535 31.021289 C 33.998535 31.562695 33.680664 32.000977 33.287598 32.000977 L 1.712402 32.000977 C 1.319336 32.000977 1.001465 31.562695 1.001465 31.021289 Z M 1.001465 1.978711 " transform="matrix(1.142857,0,0,1.212121,0,0)"/>
<path style=" stroke:none;fill-rule:nonzero;fill:rgb(25.882353%,58.039216%,81.568627%);fill-opacity:1;" d="M 25.476562 18.277344 L 25.476562 21.25 L 14.339844 21.25 L 14.339844 18.277344 Z M 21.4375 13.601562 L 21.4375 26.152344 L 18.390625 26.152344 L 18.390625 13.601562 Z M 21.4375 13.601562 "/>
</g>
</svg>
