<svg width="10" height="10" viewBox="0 0 10 10" fill="none" xmlns="http://www.w3.org/2000/svg">
	<path d="M9.58059 8.65527H0.763594C0.676235 8.6558 0.592602 8.69073 0.530828 8.7525C0.469055 8.81428 0.434118 8.89791 0.433594 8.98527C0.435382 9.07223 0.470724 9.15513 0.532228 9.21664C0.593731 9.27814 0.676633 9.31348 0.763594 9.31527H9.58859C9.67595 9.31474 9.75959 9.27981 9.82136 9.21803C9.88313 9.15626 9.91807 9.07263 9.91859 8.98527C9.91625 8.8971 9.87964 8.81332 9.81653 8.75171C9.75343 8.6901 9.66879 8.6555 9.58059 8.65527Z" fill="#4294D0" />
	<path d="M0.433782 5.72973L0.425782 7.29973C0.425683 7.34467 0.434467 7.38918 0.451628 7.43072C0.46879 7.47225 0.49399 7.50998 0.525782 7.54174C0.555982 7.57338 0.592295 7.59856 0.632519 7.61575C0.672743 7.63294 0.716039 7.64178 0.759782 7.64173L2.32278 7.63374C2.36653 7.63378 2.40982 7.62494 2.45004 7.60775C2.49027 7.59056 2.52658 7.56538 2.55678 7.53373L7.95678 2.13374C8.01854 2.0701 8.05309 1.98491 8.05309 1.89623C8.05309 1.80756 8.01854 1.72237 7.95678 1.65873L6.40578 0.0997348C6.34193 0.0364693 6.25567 0.000976562 6.16578 0.000976562C6.07589 0.000976562 5.98964 0.0364693 5.92578 0.0997348L4.84578 1.18774L0.525782 5.49973C0.464995 5.56291 0.429425 5.64614 0.425782 5.73373L0.433782 5.72973ZM6.17178 0.805735L7.25978 1.89373L6.64678 2.50673L5.55978 1.41773L6.17278 0.804735L6.17178 0.805735ZM1.10278 5.87473L5.08378 1.89373L6.17178 2.98173L2.19078 6.95473L1.09078 6.96273L1.10278 5.87473Z" fill="#4294D0" />
</svg>
